<svg xmlns="http://www.w3.org/2000/svg" viewBox="0 0 24 24">
  <circle cx="12" cy="12" r="12" fill="#1DB954"/>
  <path fill="#000" d="M17.521 17.34c-.24.36-.66.48-1.021.24-2.82-1.74-6.36-2.1-10.561-1.14-.418.122-.779-.18-.899-.54-.12-.42.18-.78.54-.9 4.56-1.02 8.52-.6 11.64 1.32.42.18.479.66.301 1.02zm1.44-3.3c-.301.42-.841.6-1.262.3-3.239-1.98-8.159-2.58-11.939-1.38-.479.12-1.02-.12-1.14-.6-.12-.48.12-1.02.6-1.14C9.6 9.9 15 10.56 18.72 12.84c.361.18.54.78.241 1.2zm.12-3.36C15.24 8.4 8.82 8.16 5.16 9.3c-.6.18-1.2-.18-1.38-.72-.18-.6.18-1.2.72-1.38 4.26-1.26 11.28-1.02 15.721 1.62.539.3.719 1.02.419 1.56-.299.42-1.02.6-1.559.3z"/>
</svg>
